<svg width="350" height="187" viewBox="0 0 350 187" fill="none" xmlns="http://www.w3.org/2000/svg">
<path d="M27.6562 65.0625C27.6562 63.2917 27.0312 61.9375 25.7812 61C24.5312 60.0417 22.2812 59.0417 19.0312 58C15.7812 56.9375 13.2083 55.8958 11.3125 54.875C6.14583 52.0833 3.5625 48.3229 3.5625 43.5938C3.5625 41.1354 4.25 38.9479 5.625 37.0312C7.02083 35.0938 9.01042 33.5833 11.5938 32.5C14.1979 31.4167 17.1146 30.875 20.3438 30.875C23.5938 30.875 26.4896 31.4688 29.0312 32.6562C31.5729 33.8229 33.5417 35.4792 34.9375 37.625C36.3542 39.7708 37.0625 42.2083 37.0625 44.9375H27.6875C27.6875 42.8542 27.0312 41.2396 25.7188 40.0938C24.4062 38.9271 22.5625 38.3438 20.1875 38.3438C17.8958 38.3438 16.1146 38.8333 14.8438 39.8125C13.5729 40.7708 12.9375 42.0417 12.9375 43.625C12.9375 45.1042 13.6771 46.3438 15.1562 47.3438C16.6562 48.3438 18.8542 49.2812 21.75 50.1562C27.0833 51.7604 30.9688 53.75 33.4062 56.125C35.8438 58.5 37.0625 61.4583 37.0625 65C37.0625 68.9375 35.5729 72.0312 32.5938 74.2812C29.6146 76.5104 25.6042 77.625 20.5625 77.625C17.0625 77.625 13.875 76.9896 11 75.7188C8.125 74.4271 5.92708 72.6667 4.40625 70.4375C2.90625 68.2083 2.15625 65.625 2.15625 62.6875H11.5625C11.5625 67.7083 14.5625 70.2188 20.5625 70.2188C22.7917 70.2188 24.5312 69.7708 25.7812 68.875C27.0312 67.9583 27.6562 66.6875 27.6562 65.0625ZM58.4062 77.625C53.4479 77.625 49.4062 76.1042 46.2812 73.0625C43.1771 70.0208 41.625 65.9688 41.625 60.9062V60.0312C41.625 56.6354 42.2812 53.6042 43.5938 50.9375C44.9062 48.25 46.7604 46.1875 49.1562 44.75C51.5729 43.2917 54.3229 42.5625 57.4062 42.5625C62.0312 42.5625 65.6667 44.0208 68.3125 46.9375C70.9792 49.8542 72.3125 53.9896 72.3125 59.3438V63.0312H50.7812C51.0729 65.2396 51.9479 67.0104 53.4062 68.3438C54.8854 69.6771 56.75 70.3438 59 70.3438C62.4792 70.3438 65.1979 69.0833 67.1562 66.5625L71.5938 71.5312C70.2396 73.4479 68.4062 74.9479 66.0938 76.0312C63.7812 77.0938 61.2188 77.625 58.4062 77.625ZM57.375 49.875C55.5833 49.875 54.125 50.4792 53 51.6875C51.8958 52.8958 51.1875 54.625 50.875 56.875H63.4375V56.1562C63.3958 54.1562 62.8542 52.6146 61.8125 51.5312C60.7708 50.4271 59.2917 49.875 57.375 49.875ZM89.75 63.4375L86.5 66.6875V77H77.4688V29H86.5V55.5938L88.25 53.3438L96.9062 43.1875H107.75L95.5312 57.2812L108.812 77H98.4375L89.75 63.4375ZM130.656 51.6562C129.427 51.4896 128.344 51.4062 127.406 51.4062C123.99 51.4062 121.75 52.5625 120.688 54.875V77H111.656V43.1875H120.188L120.438 47.2188C122.25 44.1146 124.76 42.5625 127.969 42.5625C128.969 42.5625 129.906 42.6979 130.781 42.9688L130.656 51.6562ZM149.969 77.625C145.01 77.625 140.969 76.1042 137.844 73.0625C134.74 70.0208 133.188 65.9688 133.188 60.9062V60.0312C133.188 56.6354 133.844 53.6042 135.156 50.9375C136.469 48.25 138.323 46.1875 140.719 44.75C143.135 43.2917 145.885 42.5625 148.969 42.5625C153.594 42.5625 157.229 44.0208 159.875 46.9375C162.542 49.8542 163.875 53.9896 163.875 59.3438V63.0312H142.344C142.635 65.2396 143.51 67.0104 144.969 68.3438C146.448 69.6771 148.312 70.3438 150.562 70.3438C154.042 70.3438 156.76 69.0833 158.719 66.5625L163.156 71.5312C161.802 73.4479 159.969 74.9479 157.656 76.0312C155.344 77.0938 152.781 77.625 149.969 77.625ZM148.938 49.875C147.146 49.875 145.688 50.4792 144.562 51.6875C143.458 52.8958 142.75 54.625 142.438 56.875H155V56.1562C154.958 54.1562 154.417 52.6146 153.375 51.5312C152.333 50.4271 150.854 49.875 148.938 49.875ZM179.844 34.875V43.1875H185.625V49.8125H179.844V66.6875C179.844 67.9375 180.083 68.8333 180.562 69.375C181.042 69.9167 181.958 70.1875 183.312 70.1875C184.312 70.1875 185.198 70.1146 185.969 69.9688V76.8125C184.198 77.3542 182.375 77.625 180.5 77.625C174.167 77.625 170.938 74.4271 170.812 68.0312V49.8125H165.875V43.1875H170.812V34.875H179.844ZM20.875 140.719L31.1875 106.5H41.625L25.7812 152H16L0.21875 106.5H10.625L20.875 140.719ZM54.875 152H45.8125V118.188H54.875V152ZM45.2812 109.438C45.2812 108.083 45.7292 106.969 46.625 106.094C47.5417 105.219 48.7812 104.781 50.3438 104.781C51.8854 104.781 53.1146 105.219 54.0312 106.094C54.9479 106.969 55.4062 108.083 55.4062 109.438C55.4062 110.812 54.9375 111.938 54 112.812C53.0833 113.688 51.8646 114.125 50.3438 114.125C48.8229 114.125 47.5938 113.688 46.6562 112.812C45.7396 111.938 45.2812 110.812 45.2812 109.438ZM73.1562 109.875V118.188H78.9375V124.812H73.1562V141.688C73.1562 142.938 73.3958 143.833 73.875 144.375C74.3542 144.917 75.2708 145.188 76.625 145.188C77.625 145.188 78.5104 145.115 79.2812 144.969V151.812C77.5104 152.354 75.6875 152.625 73.8125 152.625C67.4792 152.625 64.25 149.427 64.125 143.031V124.812H59.1875V118.188H64.125V109.875H73.1562ZM103.562 152C103.146 151.188 102.844 150.177 102.656 148.969C100.469 151.406 97.625 152.625 94.125 152.625C90.8125 152.625 88.0625 151.667 85.875 149.75C83.7083 147.833 82.625 145.417 82.625 142.5C82.625 138.917 83.9479 136.167 86.5938 134.25C89.2604 132.333 93.1042 131.365 98.125 131.344H102.281V129.406C102.281 127.844 101.875 126.594 101.062 125.656C100.271 124.719 99.0104 124.25 97.2812 124.25C95.7604 124.25 94.5625 124.615 93.6875 125.344C92.8333 126.073 92.4062 127.073 92.4062 128.344H83.375C83.375 126.385 83.9792 124.573 85.1875 122.906C86.3958 121.24 88.1042 119.938 90.3125 119C92.5208 118.042 95 117.562 97.75 117.562C101.917 117.562 105.219 118.615 107.656 120.719C110.115 122.802 111.344 125.74 111.344 129.531V144.188C111.365 147.396 111.812 149.823 112.688 151.469V152H103.562ZM96.0938 145.719C97.4271 145.719 98.6562 145.427 99.7812 144.844C100.906 144.24 101.74 143.438 102.281 142.438V136.625H98.9062C94.3854 136.625 91.9792 138.188 91.6875 141.312L91.6562 141.844C91.6562 142.969 92.0521 143.896 92.8438 144.625C93.6354 145.354 94.7188 145.719 96.0938 145.719ZM127.812 152H118.75V104H127.812V152ZM144.812 152H135.75V118.188H144.812V152ZM135.219 109.438C135.219 108.083 135.667 106.969 136.562 106.094C137.479 105.219 138.719 104.781 140.281 104.781C141.823 104.781 143.052 105.219 143.969 106.094C144.885 106.969 145.344 108.083 145.344 109.438C145.344 110.812 144.875 111.938 143.938 112.812C143.021 113.688 141.802 114.125 140.281 114.125C138.76 114.125 137.531 113.688 136.594 112.812C135.677 111.938 135.219 110.812 135.219 109.438ZM164.562 138.438L161.312 141.688V152H152.281V104H161.312V130.594L163.062 128.344L171.719 118.188H182.562L170.344 132.281L183.625 152H173.25L164.562 138.438Z" fill="white"/>
<path fill-rule="evenodd" clip-rule="evenodd" d="M104 10H340V177H104V168H94V177V187H104H340H350V177V10V0H340H104H94V10V18H104V10Z" fill="white"/>
</svg>
